PathFileType	4	(X/Y/Z)	14_2_59_p1_0-390_filt_butterworth.trc
DataRate	CameraRate	NumFrames	NumMarkers	Units	OrigDataRate	OrigDataStartFrame	OrigNumFrames
58.0	58.0	5	27	m	58.0	0	390
Frame#	Time	RHip			RKnee			RAnkle			RBigToe			RSmallToe			RHeel			LHip			LKnee			LAnkle			LBigToe			LSmallToe			LHeel			Neck			Head			Nose			RShoulder			RElbow			RWrist			RThumb			RIndex			RPinky			LShoulder			LElbow			LWrist			LThumb			LIndex			LPinky			
		X1	Y1	Z1	X2	Y2	Z2	X3	Y3	Z3	X4	Y4	Z4	X5	Y5	Z5	X6	Y6	Z6	X7	Y7	Z7	X8	Y8	Z8	X9	Y9	Z9	X10	Y10	Z10	X11	Y11	Z11	X12	Y12	Z12	X13	Y13	Z13	X14	Y14	Z14	X15	Y15	Z15	X16	Y16	Z16	X17	Y17	Z17	X18	Y18	Z18	X19	Y19	Z19	X20	Y20	Z20	X21	Y21	Z21	X22	Y22	Z22	X23	Y23	Z23	X24	Y24	Z24	X25	Y25	Z25	X26	Y26	Z26	X27	Y27	Z27	
0	0.0	0.3026522084444862	0.6081133100505541	0.3023184102366876	0.2989561278483131	0.7587834935696591	0.7072389409278302	0.29488033788542795	0.8947964653953395	1.111626191836534	0.26826414340772625	0.7197993994436099	1.1648111344814231	0.3223740991030665	0.738118461322258	1.1668451062000047	0.2796858681596612	0.9839485324731634	1.177831134214111	0.07870071150257006	0.6258733619383411	0.3121312098221325	0.09152100213452544	0.771044013355112	0.6997584740039677	0.10706837080340179	0.8875850700675432	1.1311395172329484	0.12075075821764383	0.7285967270583096	1.1634443987654448	0.06778955172351922	0.7598110894750671	1.1623245055710572	0.12804612709982946	0.9581855056393612	1.1723840188467138	0.21687838205755888	0.4797521895520535	-0.3189857402448175	0.21161252720104665	0.41381817791509906	-0.5715129239247634	0.19919218292700885	0.355306843420088	-0.4260591666466374	0.37514203009841113	0.48608959372138333	-0.21509587211141257	0.3903296906288457	0.4236676043340292	0.03816271320334061	0.2707510632022189	0.39994836278491197	0.23792233222536782	0.19019826044859783	0.37868826653931276	0.2703196656970558	0.1727066695454255	0.4339861245720593	0.31736408033028113	0.17337111462392701	0.43268055689324025	0.34314741120114706	0.04402258203621953	0.49165305800092385	-0.23654490615279794	-0.01732829267426441	0.4436929800296354	0.027615844539773574	0.11484779024690626	0.3335380198778236	0.20067567383566343	0.23728160380973393	0.2980105054375718	0.20391322290001979	0.25855416647154383	0.28602676184336245	0.25963338384615275	0.20849162205087965	0.35379143450736544	0.3254788142505232
1	0.0172413793103448	0.3062426620233414	0.6096691380690458	0.30174196416437876	0.30116564454138933	0.7650988561065968	0.7071114581796801	0.295011984846237	0.8945340279637325	1.1145084756684835	0.2664365199316137	0.7138982371925842	1.163164424499939	0.32179040909295764	0.7368890038984977	1.1668563771698575	0.27920969690949304	0.9847694312322395	1.1808120274490248	0.08180765515063372	0.6345019546239962	0.3106543339902049	0.09151134403439054	0.7708124368688327	0.6996504193384975	0.10530338393239944	0.8850598233644325	1.127460535955982	0.12072290585761167	0.7264034137688941	1.1577643946450604	0.0671796442486667	0.7506724596181927	1.1588356652227503	0.12532289395250767	0.9558949982195605	1.1716888823699951	0.21692100011185028	0.4798934778215716	-0.3189414360395655	0.21157295566572418	0.41328598533718686	-0.5724123109348612	0.1991923236098716	0.3554350466791857	-0.4252827390610362	0.37669587361656265	0.4771906851298827	-0.21390259477337414	0.39027035772241003	0.42356166333475936	0.03858046661132603	0.2697329978271273	0.41486699859838305	0.23771607857083493	0.18665719435250616	0.4006263207651438	0.2785236389370923	0.17267340882092444	0.4459508908875505	0.32250204008697575	0.17531882300920137	0.4319898025517039	0.3412120810367808	0.04511226652721691	0.49580083279482917	-0.2370319009490706	-0.017553017908056637	0.4438234120657597	0.028981634297914474	0.12138506177494596	0.3391512582840401	0.20092386558206415	0.24171533713351903	0.3032577974939596	0.20370532869881652	0.26085916204402715	0.28632664684759707	0.2597137176790908	0.21715380737928103	0.35403983694868724	0.32500606878283733
2	0.0344827586206896	0.30918061115925477	0.6098580114502383	0.30033493054294613	0.3014310668822329	0.7659129948248714	0.7060136691868717	0.29510776218373624	0.8943674432470186	1.1161273929592046	0.2647389604662649	0.7085842621483123	1.161575809036692	0.32140299660433613	0.7361850321447436	1.1668909980258009	0.27976562715408154	0.9879582531890064	1.1825372001306138	0.08373095168180616	0.6396165391594848	0.3094669576453844	0.09143337105150354	0.7704595001574241	0.6990355535294556	0.10487189492340145	0.8839203811184428	1.1253792239688662	0.12068795644830782	0.7251622522432132	1.1544396542826605	0.06602216104508936	0.7482930982894225	1.1578554093378934	0.12466899905608655	0.9553956990670767	1.171406405365632	0.21694578617786314	0.47996724393763035	-0.318923475539537	0.2115664852906311	0.41304343847861025	-0.5728102743162746	0.19915684126500915	0.3554166075740002	-0.4253067518171174	0.3777079098920999	0.47222078938544354	-0.2122783857984701	0.39022838664550946	0.4237212838777598	0.0405937464342054	0.2684507473521015	0.42344626223178927	0.23819992012580654	0.1825591498596782	0.42016290317545124	0.2835552240036533	0.17263501637050624	0.45451435090427994	0.32734323124322373	0.17591119367996516	0.4331637703077585	0.3401982018522542	0.04588799876848931	0.49879998395420877	-0.23737998899011906	-0.01767303373293966	0.4440809772349522	0.03021790540604122	0.12736053604791386	0.34418860688988306	0.20051893514718297	0.24532084139157076	0.3102054622143637	0.20328596375810815	0.2643992796850825	0.2885694951409521	0.25730132356722446	0.22471277167722678	0.3569484832673512	0.32429174276125516
3	0.0517241379310344	0.31148275837982836	0.6076421724580452	0.2982818316388517	0.29994813279276356	0.761742164496195	0.7044569649542909	0.2951400242626942	0.8943454825665762	1.1165494988772233	0.2636100160100649	0.7052009281892853	1.1605041865151877	0.321244317140774	0.7360747861881405	1.1669534679473326	0.28115260571580264	0.9933360708838832	1.1835970416354933	0.08438146605051415	0.6411028543415973	0.3088994449073872	0.09127376233312257	0.7699782197831875	0.6976300138548994	0.10542971697777476	0.8840009335456804	1.1249059417673344	0.12065498102185643	0.7249597966322983	1.153610037075773	0.06450841101519551	0.7522535302663242	1.1592596058835412	0.12593679776023076	0.9565830370025563	1.171669863240456	0.21695255296497237	0.47997798028455113	-0.3189250018161297	0.21162969487214822	0.413242389413174	-0.5725479112005415	0.19911286023098412	0.3553851479868499	-0.42578995677677534	0.3780815341280558	0.471227094277924	-0.21085134753851414	0.3902247653180658	0.4242440957733858	0.0437767692208124	0.26736306183537395	0.42551552129711945	0.23988212390177271	0.17713575371314252	0.43703884793296033	0.28580426110006724	0.17172056093604932	0.45860392605419636	0.3313808006197498	0.17485791111254914	0.4352844353057786	0.3406133936189063	0.04647638821243316	0.5010873987768565	-0.2376361596853483	-0.017725703186335803	0.4443110265411135	0.031015249363527043	0.13216456018212674	0.34741695018621643	0.1994228036924548	0.24735928402298268	0.31819495900737066	0.20273094241979878	0.2682302150819563	0.2947296040545245	0.2527827022097409	0.23025015779387942	0.36240131330465297	0.323515154516165
4	0.0689655172413793	0.31329187973645134	0.6031880936170797	0.2963757924998205	0.2982376870965062	0.7569502707397548	0.7031373029975952	0.29505897593794234	0.894530526310143	1.1168193611054142	0.2632409961027717	0.7041455065371864	1.160147534370331	0.3212338015907794	0.7363443277896702	1.167020828806442	0.2822857601039713	0.9983369600462584	1.1843392562068447	0.08445904920732548	0.6410599794130317	0.30895868031153734	0.0911131028857165	0.7695866098107854	0.6959520845119528	0.10598068007953917	0.8843735569294968	1.1250789095475024	0.12063901491027221	0.7252506798379046	1.15393636999157	0.06334709333161627	0.7572509195967272	1.1611310488376034	0.1274790907380161	0.958101445303557	1.1722630815596973	0.216951551978554	0.47997548270908696	-0.3189205630749373	0.21175180197657656	0.41370969398540225	-0.5720424458547654	0.19908315652485242	0.35541510088293077	-0.42587885247255397	0.37808756748576305	0.4718700471492438	-0.21023169308014664	0.3903366370163011	0.4251163810918515	0.0469584356334635	0.2668097632762654	0.4250525180020657	0.2422380178495457	0.1713972368638212	0.45003595310655736	0.28672292153101114	0.16955872360607782	0.4596431434764442	0.33421811249115646	0.17253179509722893	0.43712424623291235	0.3419680944391006	0.04695277550441578	0.502836747992539	-0.23783332727606363	-0.0176841166655515	0.444421639642807	0.031273694372934265	0.1356598785895948	0.34882333458274367	0.198018660183225	0.24750869526580746	0.32591171207789993	0.20242634069274493	0.2699514095581463	0.3068340665995568	0.24907574133612972	0.2338523312794177	0.3692753995964587	0.3230805426870482
